<?xml version="1.0" encoding="UTF-8" standalone="no"?>
<!-- Created with Inkscape (http://www.inkscape.org/) -->

<svg
   xmlns:dc="http://purl.org/dc/elements/1.1/"
   xmlns:cc="http://creativecommons.org/ns#"
   xmlns:rdf="http://www.w3.org/1999/02/22-rdf-syntax-ns#"
   xmlns:svg="http://www.w3.org/2000/svg"
   xmlns="http://www.w3.org/2000/svg"
   xmlns:sodipodi="http://sodipodi.sourceforge.net/DTD/sodipodi-0.dtd"
   xmlns:inkscape="http://www.inkscape.org/namespaces/inkscape"
   width="210mm"
   height="297mm"
   viewBox="0 0 744.09448819 1052.3622047"
   id="svg2"
   version="1.1"
   inkscape:version="0.91 r13725"
   sodipodi:docname="dso138_case_top.svg">
  <defs
     id="defs4" />
  <sodipodi:namedview
     id="base"
     pagecolor="#ffffff"
     bordercolor="#666666"
     borderopacity="1.0"
     inkscape:pageopacity="0.0"
     inkscape:pageshadow="2"
     inkscape:zoom="2.8"
     inkscape:cx="78.247473"
     inkscape:cy="177.70255"
     inkscape:document-units="px"
     inkscape:current-layer="layer1"
     showgrid="false"
     inkscape:snap-object-midpoints="false"
     inkscape:window-width="3440"
     inkscape:window-height="1370"
     inkscape:window-x="0"
     inkscape:window-y="0"
     inkscape:window-maximized="1" />
  <metadata
     id="metadata7">
    <rdf:RDF>
      <cc:Work
         rdf:about="">
        <dc:format>image/svg+xml</dc:format>
        <dc:type
           rdf:resource="http://purl.org/dc/dcmitype/StillImage" />
        <dc:title />
      </cc:Work>
    </rdf:RDF>
  </metadata>
  <g
     inkscape:label="Layer 1"
     inkscape:groupmode="layer"
     id="layer1"
     style="display:inline">
    <rect
       style="fill:none;fill-opacity:1;stroke:#000000;stroke-linejoin:miter;stroke-opacity:1"
       id="rect4140"
       width="10.629921"
       height="10.629921"
       x="30.618111"
       y="1011.1141"
       ry="10.629921" />
    <rect
       ry="10.629921"
       y="1011.1141"
       x="409.75195"
       height="10.629921"
       width="10.629921"
       id="rect4142"
       style="fill:none;fill-opacity:1;stroke:#000000;stroke-linejoin:miter;stroke-opacity:1" />
    <rect
       ry="10.629921"
       y="777.25586"
       x="30.618111"
       height="10.629921"
       width="10.629921"
       id="rect4144"
       style="fill:none;fill-opacity:1;stroke:#000000;stroke-linejoin:miter;stroke-opacity:1" />
    <rect
       style="fill:none;fill-opacity:1;stroke:#000000;stroke-linejoin:miter;stroke-opacity:1"
       id="rect4146"
       width="10.629921"
       height="10.629921"
       x="409.75195"
       y="777.25586"
       ry="10.629921" />
    <path
       style="fill:none;fill-opacity:1;stroke:#000000;stroke-linejoin:miter;stroke-opacity:1"
       d="M 7.5859375 747.13867 C 3.6599533 747.13867 0.5 750.29863 0.5 754.22461 L 0.5 826.95703 C 0.83643783 826.89221 1.1831332 826.85547 1.5390625 826.85547 L 92.460938 826.85547 C 95.465906 826.85547 97.884766 829.27433 97.884766 832.2793 L 97.884766 835.91602 C 98.474543 835.79182 99.085041 835.7207 99.712891 835.7207 C 104.62037 835.7207 108.57031 839.67066 108.57031 844.57812 C 108.57031 849.48562 104.62037 853.4375 99.712891 853.4375 C 99.085043 853.4375 98.474516 853.36689 97.884766 853.24219 L 97.884766 866.02734 C 98.474707 865.90442 99.085409 865.83789 99.712891 865.83789 C 104.62037 865.83789 108.57031 869.78979 108.57031 874.69727 C 108.57031 879.60475 104.62037 883.55469 99.712891 883.55469 C 99.085401 883.55469 98.474714 883.48816 97.884766 883.36523 L 97.884766 980.89453 C 97.884766 983.8995 95.465908 986.31836 92.460938 986.31836 L 1.5390625 986.31836 C 1.1831332 986.31836 0.83643783 986.28162 0.5 986.2168 L 0.5 1044.7754 C 0.5 1048.7014 3.6599533 1051.8613 7.5859375 1051.8613 L 443.41406 1051.8613 C 447.34005 1051.8613 450.5 1048.7014 450.5 1044.7754 L 450.5 998.72266 L 392.03516 998.72266 C 390.07216 998.72266 388.49219 997.14268 388.49219 995.17969 L 388.49219 818.01367 C 388.49219 816.05068 390.07216 814.4707 392.03516 814.4707 L 450.5 814.4707 L 450.5 754.22461 C 450.5 750.29863 447.34005 747.13867 443.41406 747.13867 L 379.63477 747.13867 L 379.63477 768.39844 C 379.63477 770.36143 378.05284 771.94141 376.08984 771.94141 L 347.74414 771.94141 C 345.78115 771.94141 344.20117 770.36143 344.20117 768.39844 L 344.20117 747.13867 L 7.5859375 747.13867 z "
       id="rect4160" />
    <rect
       style="fill:none;fill-opacity:1;stroke:#000000;stroke-width:0.87611115;stroke-linejoin:miter;stroke-opacity:1"
       id="rect5296"
       width="42.642796"
       height="35.433071"
       x="337.05222"
       y="1002.3179"
       ry="5.423676" />
  </g>
</svg>
